<svg width="174" height="37" viewBox="0 0 174 37" fill="none" xmlns="http://www.w3.org/2000/svg">
<path d="M171.878 17.408L167.767 17.661C167.697 17.3096 167.546 16.9933 167.314 16.7122C167.082 16.4241 166.776 16.1957 166.397 16.0271C166.024 15.8514 165.578 15.7635 165.058 15.7635C164.362 15.7635 163.775 15.9111 163.297 16.2063C162.82 16.4944 162.581 16.8809 162.581 17.3658C162.581 17.7523 162.735 18.0791 163.044 18.3461C163.354 18.6132 163.884 18.8275 164.636 18.9892L167.567 19.5795C169.141 19.9027 170.314 20.4228 171.087 21.1396C171.86 21.8564 172.247 22.7981 172.247 23.9646C172.247 25.0258 171.934 25.9569 171.309 26.7581C170.69 27.5592 169.84 28.1846 168.758 28.6344C167.683 29.0771 166.442 29.2985 165.037 29.2985C162.893 29.2985 161.186 28.8523 159.914 27.9598C158.649 27.0602 157.907 25.8375 157.689 24.2914L162.106 24.0595C162.24 24.7131 162.563 25.212 163.076 25.5564C163.589 25.8937 164.246 26.0623 165.047 26.0623C165.834 26.0623 166.467 25.9112 166.945 25.6091C167.43 25.2999 167.676 24.9028 167.683 24.4179C167.676 24.0103 167.503 23.6765 167.166 23.4165C166.829 23.1494 166.309 22.9456 165.606 22.8051L162.802 22.2464C161.221 21.9302 160.044 21.382 159.271 20.602C158.505 19.8219 158.122 18.8275 158.122 17.6188C158.122 16.5787 158.403 15.6827 158.965 14.9308C159.534 14.1788 160.332 13.5991 161.358 13.1915C162.391 12.7839 163.6 12.5801 164.984 12.5801C167.029 12.5801 168.638 13.0123 169.812 13.8767C170.993 14.741 171.681 15.9181 171.878 17.408Z" fill="#939393"/>
<path d="M155.21 17.408L151.099 17.661C151.029 17.3096 150.878 16.9933 150.646 16.7122C150.414 16.4241 150.108 16.1957 149.729 16.0271C149.356 15.8514 148.91 15.7635 148.39 15.7635C147.694 15.7635 147.107 15.9111 146.629 16.2063C146.152 16.4944 145.913 16.8809 145.913 17.3658C145.913 17.7523 146.067 18.0791 146.376 18.3461C146.686 18.6132 147.216 18.8275 147.968 18.9892L150.899 19.5795C152.473 19.9027 153.646 20.4228 154.419 21.1396C155.192 21.8564 155.579 22.7981 155.579 23.9646C155.579 25.0258 155.266 25.9569 154.641 26.7581C154.022 27.5592 153.172 28.1846 152.09 28.6344C151.015 29.0771 149.774 29.2985 148.369 29.2985C146.225 29.2985 144.518 28.8523 143.246 27.9598C141.981 27.0602 141.239 25.8375 141.021 24.2914L145.438 24.0595C145.572 24.7131 145.895 25.212 146.408 25.5564C146.921 25.8937 147.578 26.0623 148.379 26.0623C149.166 26.0623 149.799 25.9112 150.277 25.6091C150.762 25.2999 151.008 24.9028 151.015 24.4179C151.008 24.0103 150.835 23.6765 150.498 23.4165C150.161 23.1494 149.641 22.9456 148.938 22.8051L146.134 22.2464C144.553 21.9302 143.376 21.382 142.603 20.602C141.837 19.8219 141.454 18.8275 141.454 17.6188C141.454 16.5787 141.735 15.6827 142.297 14.9308C142.866 14.1788 143.664 13.5991 144.69 13.1915C145.723 12.7839 146.932 12.5801 148.316 12.5801C150.361 12.5801 151.97 13.0123 153.144 13.8767C154.325 14.741 155.013 15.9181 155.21 17.408Z" fill="#939393"/>
<path d="M131.374 29.2985C129.709 29.2985 128.275 28.9612 127.073 28.2865C125.879 27.6049 124.958 26.6421 124.312 25.3982C123.665 24.1473 123.342 22.6681 123.342 20.9604C123.342 19.2949 123.665 17.8331 124.312 16.5752C124.958 15.3173 125.868 14.337 127.042 13.6342C128.222 12.9315 129.607 12.5801 131.195 12.5801C132.263 12.5801 133.258 12.7523 134.178 13.0966C135.106 13.4339 135.914 13.9434 136.603 14.6251C137.298 15.3067 137.84 16.1641 138.226 17.1971C138.613 18.2232 138.806 19.4249 138.806 20.8023V22.0356H125.134V19.2527H134.579C134.579 18.6062 134.438 18.0334 134.157 17.5345C133.876 17.0355 133.486 16.6455 132.987 16.3644C132.495 16.0763 131.922 15.9322 131.269 15.9322C130.587 15.9322 129.983 16.0903 129.456 16.4066C128.936 16.7158 128.528 17.1339 128.233 17.661C127.938 18.181 127.787 18.7608 127.78 19.4003V22.0461C127.78 22.8473 127.927 23.5395 128.222 24.1227C128.525 24.706 128.95 25.1558 129.498 25.472C130.046 25.7883 130.696 25.9464 131.448 25.9464C131.947 25.9464 132.404 25.8761 132.818 25.7356C133.233 25.595 133.588 25.3842 133.883 25.1031C134.178 24.822 134.403 24.4776 134.558 24.07L138.711 24.3441C138.5 25.342 138.068 26.2134 137.414 26.9583C136.768 27.6962 135.932 28.2725 134.906 28.6871C133.887 29.0947 132.709 29.2985 131.374 29.2985Z" fill="#939393"/>
<path d="M110.022 19.6216V28.9823H105.531V12.7909H109.811V15.6476H110.001C110.359 14.7059 110.96 13.961 111.803 13.4128C112.647 12.8577 113.669 12.5801 114.871 12.5801C115.995 12.5801 116.976 12.826 117.812 13.318C118.648 13.8099 119.298 14.5126 119.762 15.4262C120.226 16.3328 120.458 17.415 120.458 18.6729V28.9823H115.967V19.4741C115.974 18.4832 115.721 17.7102 115.208 17.155C114.695 16.5928 113.989 16.3117 113.089 16.3117C112.485 16.3117 111.951 16.4417 111.487 16.7017C111.03 16.9617 110.672 17.3412 110.412 17.8402C110.159 18.3321 110.029 18.9259 110.022 19.6216Z" fill="#939393"/>
<path d="M97.4421 28.982V12.7906H101.933V28.982H97.4421ZM99.6979 10.7034C99.0303 10.7034 98.4576 10.4821 97.9797 10.0393C97.5089 9.58958 97.2734 9.05197 97.2734 8.42653C97.2734 7.80811 97.5089 7.27753 97.9797 6.8348C98.4576 6.38504 99.0303 6.16016 99.6979 6.16016C100.366 6.16016 100.935 6.38504 101.406 6.8348C101.883 7.27753 102.122 7.80811 102.122 8.42653C102.122 9.05197 101.883 9.58958 101.406 10.0393C100.935 10.4821 100.366 10.7034 99.6979 10.7034Z" fill="#939393"/>
<path d="M94.2471 17.408L90.136 17.661C90.0658 17.3096 89.9147 16.9933 89.6828 16.7122C89.4508 16.4241 89.1451 16.1957 88.7657 16.0271C88.3932 15.8514 87.947 15.7635 87.4269 15.7635C86.7312 15.7635 86.1444 15.9111 85.6665 16.2063C85.1887 16.4944 84.9497 16.8809 84.9497 17.3658C84.9497 17.7523 85.1043 18.0791 85.4135 18.3461C85.7228 18.6132 86.2533 18.8275 87.0053 18.9892L89.9357 19.5795C91.5099 19.9027 92.6835 20.4228 93.4565 21.1396C94.2295 21.8564 94.6161 22.7981 94.6161 23.9646C94.6161 25.0258 94.3033 25.9569 93.6779 26.7581C93.0595 27.5592 92.2091 28.1846 91.1269 28.6344C90.0517 29.0771 88.8113 29.2985 87.4058 29.2985C85.2625 29.2985 83.5548 28.8523 82.2828 27.9598C81.0178 27.0602 80.2764 25.8375 80.0586 24.2914L84.4754 24.0595C84.6089 24.7131 84.9322 25.212 85.4452 25.5564C85.9582 25.8937 86.6152 26.0623 87.4164 26.0623C88.2035 26.0623 88.8359 25.9112 89.3138 25.6091C89.7987 25.2999 90.0447 24.9028 90.0517 24.4179C90.0447 24.0103 89.8725 23.6765 89.5352 23.4165C89.1979 23.1494 88.6778 22.9456 87.9751 22.8051L85.1711 22.2464C83.5899 21.9302 82.4128 21.382 81.6398 20.602C80.8738 19.8219 80.4908 18.8275 80.4908 17.6188C80.4908 16.5787 80.7719 15.6827 81.3341 14.9308C81.9033 14.1788 82.7009 13.5991 83.7269 13.1915C84.76 12.7839 85.9687 12.5801 87.3531 12.5801C89.3981 12.5801 91.0074 13.0123 92.181 13.8767C93.3617 14.741 94.0503 15.9181 94.2471 17.408Z" fill="#939393"/>
<path d="M72.6917 22.0884V12.791H77.1823V28.9824H72.8709V26.0414H72.7023C72.3368 26.9901 71.729 27.7526 70.8786 28.3288C70.0353 28.9051 69.0058 29.1932 67.79 29.1932C66.7078 29.1932 65.7556 28.9472 64.9334 28.4553C64.1111 27.9634 63.4681 27.2641 63.0043 26.3576C62.5475 25.4511 62.3156 24.3653 62.3086 23.1004V12.791H66.7992V22.2992C66.8062 23.255 67.0627 24.0104 67.5687 24.5656C68.0747 25.1208 68.7528 25.3983 69.6031 25.3983C70.1443 25.3983 70.6502 25.2754 71.1211 25.0294C71.5919 24.7764 71.9714 24.404 72.2595 23.912C72.5547 23.4201 72.6988 22.8122 72.6917 22.0884Z" fill="#939393"/>
<path d="M43.5215 28.983V7.39453H48.0121V15.5113H48.1491C48.3459 15.0756 48.6305 14.6329 49.0029 14.1831C49.3824 13.7263 49.8743 13.3468 50.4787 13.0446C51.0901 12.7354 51.8491 12.5808 52.7556 12.5808C53.9362 12.5808 55.0255 12.89 56.0234 13.5085C57.0213 14.1198 57.8189 15.044 58.4163 16.2808C59.0136 17.5106 59.3123 19.0532 59.3123 20.9084C59.3123 22.7145 59.0206 24.2394 58.4374 25.4833C57.8611 26.7202 57.074 27.6583 56.0761 28.2978C55.0852 28.9303 53.9749 29.2465 52.7451 29.2465C51.8737 29.2465 51.1323 29.1025 50.5209 28.8144C49.9165 28.5262 49.4211 28.1643 49.0346 27.7286C48.648 27.2859 48.3529 26.8396 48.1491 26.3899H47.9488V28.983H43.5215ZM47.9172 20.8873C47.9172 21.8501 48.0507 22.6899 48.3178 23.4067C48.5848 24.1235 48.9713 24.6822 49.4773 25.0827C49.9833 25.4763 50.5982 25.6731 51.322 25.6731C52.0529 25.6731 52.6713 25.4728 53.1773 25.0722C53.6832 24.6646 54.0662 24.1024 54.3263 23.3856C54.5933 22.6618 54.7268 21.829 54.7268 20.8873C54.7268 19.9527 54.5968 19.1305 54.3368 18.4207C54.0768 17.7109 53.6938 17.1557 53.1878 16.7552C52.6818 16.3546 52.0599 16.1543 51.322 16.1543C50.5911 16.1543 49.9727 16.3476 49.4667 16.7341C48.9678 17.1206 48.5848 17.6687 48.3178 18.3785C48.0507 19.0883 47.9172 19.9246 47.9172 20.8873Z" fill="#939393"/>
<path fill-rule="evenodd" clip-rule="evenodd" d="M17.8804 13.3846L22.7379 18.2422L18.1128 22.8673L13.2552 18.0098L17.8804 13.3846ZM12.9 8.40422L9.85448 5.35871C9.68076 5.18499 9.68076 4.90334 9.85448 4.72962L14.2058 0.378337C14.3795 0.204617 14.6611 0.204617 14.8349 0.378337L29.7105 15.2539C31.3608 16.9043 31.3608 19.58 29.7105 21.2304L23.0932 27.8477L26.1387 30.8932C26.3124 31.0669 26.3124 31.3486 26.1387 31.5223L21.7874 35.8736C21.6137 36.0473 21.332 36.0473 21.1583 35.8736L6.28269 20.998C4.63233 19.3476 4.63233 16.6719 6.28269 15.0215L12.9 8.40422Z" fill="#939393"/>
</svg>
