<svg width="224" height="36" viewBox="0 0 224 36" fill="none" xmlns="http://www.w3.org/2000/svg">
<path d="M210.918 13.4693C212.185 11.9455 213.748 11.1737 215.608 11.1539C216.618 11.1341 217.508 11.3023 218.28 11.6585C219.052 11.995 219.675 12.46 220.15 13.0537C220.724 13.7463 221.12 14.5577 221.337 15.4878C221.555 16.3981 221.664 17.4173 221.664 18.5453V27.124H217.449V18.8718C217.449 18.3177 217.389 17.7933 217.271 17.2985C217.172 16.784 216.994 16.3486 216.736 15.9924C216.479 15.6164 216.133 15.3394 215.697 15.1613C215.282 14.9832 214.807 14.8941 214.273 14.8941C213.6 14.9139 213.026 15.0623 212.551 15.3394C212.096 15.6164 211.749 15.9726 211.512 16.408C211.274 16.8236 211.106 17.2985 211.007 17.8328C210.928 18.3474 210.889 18.8718 210.889 19.4061V27.124H206.703V11.4804H210.71L210.918 13.4693Z" fill="#939393"/>
<path d="M196.089 27.3618C193.556 27.3618 191.607 26.6494 190.242 25.2246C188.876 23.78 188.193 21.7812 188.193 19.2284C188.193 18.0014 188.371 16.8932 188.728 15.9038C189.104 14.8945 189.618 14.0337 190.271 13.3212C190.944 12.6088 191.765 12.0745 192.735 11.7183C193.725 11.3423 194.843 11.1543 196.089 11.1543C197.316 11.1543 198.415 11.3423 199.384 11.7183C200.374 12.0745 201.205 12.6088 201.878 13.3212C202.57 14.0337 203.095 14.8945 203.451 15.9038C203.827 16.8932 204.015 18.0014 204.015 19.2284C204.015 21.801 203.322 23.7997 201.937 25.2246C200.572 26.6494 198.622 27.3618 196.089 27.3618ZM196.089 14.8945C194.803 14.8945 193.853 15.3101 193.24 16.1412C192.626 16.9724 192.319 18.0113 192.319 19.2581C192.319 20.5246 192.626 21.5734 193.24 22.4046C193.853 23.2357 194.803 23.6513 196.089 23.6513C197.376 23.6513 198.316 23.2357 198.909 22.4046C199.503 21.5734 199.8 20.5246 199.8 19.2581C199.8 18.0113 199.503 16.9724 198.909 16.1412C198.316 15.3101 197.376 14.8945 196.089 14.8945Z" fill="#939393"/>
<path d="M183.161 4.20898C183.932 4.20898 184.556 4.43656 185.031 4.89172C185.506 5.34688 185.743 5.95046 185.743 6.70245C185.743 7.49403 185.506 8.1174 185.031 8.57256C184.556 9.00792 183.932 9.22561 183.161 9.22561C182.409 9.22561 181.785 9.00792 181.291 8.57256C180.816 8.1174 180.578 7.49403 180.578 6.70245C180.578 5.95046 180.816 5.34688 181.291 4.89172C181.785 4.43656 182.409 4.20898 183.161 4.20898ZM185.268 27.1252H181.083V11.4816H185.268V27.1252Z" fill="#939393"/>
<path d="M174.855 15.1323V21.455C174.855 22.8007 175.538 23.4736 176.903 23.4736H178.447V27.1247H176.488C174.41 27.2039 172.916 26.8081 172.005 25.9373C171.115 25.0666 170.67 23.7506 170.67 21.9894V15.1323H168.295V11.4812H170.67V7.23633H174.855V11.4812H178.595V15.1323H174.855Z" fill="#939393"/>
<path d="M162.263 25.1949C161.669 25.9865 160.947 26.5505 160.096 26.8869C159.245 27.2233 158.255 27.3816 157.127 27.3618C155.683 27.3223 154.475 26.9166 153.506 26.1448C152.991 25.7094 152.585 25.1949 152.289 24.6012C152.012 23.9877 151.873 23.2654 151.873 22.4343C151.893 21.5833 152.081 20.8313 152.437 20.1783C152.813 19.5054 153.377 18.9513 154.129 18.516C154.762 18.1795 155.475 17.9421 156.266 17.8035C157.078 17.665 157.958 17.5958 158.908 17.5958H162.114C162.173 16.6261 161.946 15.9038 161.431 15.4288C160.937 14.9341 160.234 14.6768 159.324 14.657C159.027 14.657 158.72 14.6768 158.404 14.7164C158.087 14.756 157.79 14.8351 157.513 14.9539C157.256 15.0726 157.028 15.2408 156.83 15.4585C156.652 15.6564 156.533 15.9038 156.474 16.2006H152.17C152.269 15.2507 152.526 14.4591 152.942 13.8259C153.377 13.1728 153.921 12.6484 154.574 12.2526C155.227 11.8568 155.95 11.5798 156.741 11.4215C157.553 11.2433 158.384 11.1543 159.235 11.1543C159.71 11.1543 160.195 11.184 160.689 11.2433C161.184 11.2829 161.669 11.3819 162.144 11.5402C162.619 11.6787 163.064 11.8766 163.48 12.1339C163.915 12.3713 164.321 12.688 164.697 13.0838C165.369 13.8556 165.785 14.7461 165.943 15.7553C166.121 16.7448 166.201 17.7145 166.181 18.6644V27.1244H162.352L162.263 25.1949ZM162.114 20.208H159.057C158.76 20.208 158.423 20.2376 158.047 20.297C157.671 20.3564 157.345 20.4652 157.068 20.6235C156.791 20.7819 156.553 20.9896 156.355 21.2469C156.177 21.5042 156.088 21.8208 156.088 22.1968C156.088 22.5134 156.148 22.7905 156.266 23.028C156.405 23.2654 156.573 23.4633 156.771 23.6216C156.989 23.78 157.246 23.9086 157.543 24.0075C157.84 24.0867 158.136 24.1263 158.433 24.1263C159.007 24.1461 159.541 24.0471 160.036 23.8294C160.551 23.6117 160.996 23.305 161.372 22.9092C161.609 22.5926 161.788 22.2364 161.906 21.8406C162.045 21.425 162.114 20.8808 162.114 20.208Z" fill="#939393"/>
<path d="M149.743 14.5102L142.144 23.4748H149.743V27.126H136.682V24.0685L144.221 15.1039H136.682V11.4824H149.743V14.5102Z" fill="#939393"/>
<path d="M131.647 4.20898C132.419 4.20898 133.042 4.43656 133.517 4.89172C133.992 5.34688 134.229 5.95046 134.229 6.70245C134.229 7.49403 133.992 8.1174 133.517 8.57256C133.042 9.00792 132.419 9.22561 131.647 9.22561C130.895 9.22561 130.272 9.00792 129.777 8.57256C129.302 8.1174 129.064 7.49403 129.064 6.70245C129.064 5.95046 129.302 5.34688 129.777 4.89172C130.272 4.43656 130.895 4.20898 131.647 4.20898ZM133.755 27.1252H129.569V11.4816H133.755V27.1252Z" fill="#939393"/>
<path d="M115.371 13.4693C116.638 11.9455 118.201 11.1737 120.061 11.1539C121.071 11.1341 121.961 11.3023 122.733 11.6585C123.505 11.995 124.128 12.46 124.603 13.0537C125.177 13.7463 125.573 14.5577 125.791 15.4878C126.008 16.3981 126.117 17.4173 126.117 18.5453V27.124H121.902V18.8718C121.902 18.3177 121.843 17.7933 121.724 17.2985C121.625 16.784 121.447 16.3486 121.189 15.9924C120.932 15.6164 120.586 15.3394 120.151 15.1613C119.735 14.9832 119.26 14.8941 118.726 14.8941C118.053 14.9139 117.479 15.0623 117.004 15.3394C116.549 15.6164 116.203 15.9726 115.965 16.408C115.728 16.8236 115.559 17.2985 115.46 17.8328C115.381 18.3474 115.342 18.8718 115.342 19.4061V27.124H111.156V11.4804H115.164L115.371 13.4693Z" fill="#939393"/>
<path d="M103.966 25.1949C103.372 25.9865 102.65 26.5505 101.799 26.8869C100.948 27.2233 99.9583 27.3816 98.8303 27.3618C97.3856 27.3223 96.1785 26.9166 95.2088 26.1448C94.6943 25.7094 94.2886 25.1949 93.9917 24.6012C93.7147 23.9877 93.5762 23.2654 93.5762 22.4343C93.596 21.5833 93.784 20.8313 94.1402 20.1783C94.5162 19.5054 95.0802 18.9513 95.8322 18.516C96.4654 18.1795 97.1779 17.9421 97.9694 17.8035C98.7808 17.665 99.6614 17.5958 100.611 17.5958H103.817C103.877 16.6261 103.649 15.9038 103.134 15.4288C102.64 14.9341 101.937 14.6768 101.027 14.657C100.73 14.657 100.423 14.6768 100.107 14.7164C99.7901 14.756 99.4932 14.8351 99.2162 14.9539C98.9589 15.0726 98.7313 15.2408 98.5334 15.4585C98.3553 15.6564 98.2366 15.9038 98.1772 16.2006H93.873C93.972 15.2507 94.2292 14.4591 94.6448 13.8259C95.0802 13.1728 95.6244 12.6484 96.2774 12.2526C96.9305 11.8568 97.6528 11.5798 98.4444 11.4215C99.2557 11.2433 100.087 11.1543 100.938 11.1543C101.413 11.1543 101.898 11.184 102.392 11.2433C102.887 11.2829 103.372 11.3819 103.847 11.5402C104.322 11.6787 104.767 11.8766 105.183 12.1339C105.618 12.3713 106.024 12.688 106.4 13.0838C107.073 13.8556 107.488 14.7461 107.646 15.7553C107.825 16.7448 107.904 17.7145 107.884 18.6644V27.1244H104.055L103.966 25.1949ZM103.817 20.208H100.76C100.463 20.208 100.126 20.2376 99.7505 20.297C99.3745 20.3564 99.048 20.4652 98.7709 20.6235C98.4938 20.7819 98.2564 20.9896 98.0585 21.2469C97.8804 21.5042 97.7913 21.8208 97.7913 22.1968C97.7913 22.5134 97.8507 22.7905 97.9694 23.028C98.108 23.2654 98.2762 23.4633 98.4741 23.6216C98.6917 23.78 98.949 23.9086 99.2458 24.0075C99.5427 24.0867 99.8395 24.1263 100.136 24.1263C100.71 24.1461 101.245 24.0471 101.739 23.8294C102.254 23.6117 102.699 23.305 103.075 22.9092C103.313 22.5926 103.491 22.2364 103.609 21.8406C103.748 21.425 103.817 20.8808 103.817 20.208Z" fill="#939393"/>
<path d="M86.6108 25.5218C86.0171 26.1946 85.3046 26.6696 84.4735 26.9466C83.6423 27.2237 82.7419 27.3622 81.7722 27.3622C80.8025 27.3622 79.8527 27.2138 78.9226 26.9169C78.0122 26.6003 77.2207 26.0957 76.5478 25.403C75.7958 24.6115 75.2714 23.7012 74.9746 22.6721C74.6777 21.6431 74.5293 20.5843 74.5293 19.4959C74.5293 16.9233 75.2417 14.8652 76.6666 13.3216C77.28 12.6487 78.0716 12.1243 79.0413 11.7483C80.0308 11.3723 81.0895 11.1942 82.2175 11.214C82.9497 11.1744 83.7413 11.3031 84.5922 11.5999C85.4432 11.8968 86.1754 12.3915 86.7889 13.0841L87.2341 11.4812H90.8556V26.1451C90.8556 26.7784 90.816 27.4018 90.7368 28.0153C90.6775 28.6485 90.5686 29.2521 90.4103 29.826C90.252 30.4197 90.0145 30.9837 89.6979 31.518C89.3417 32.171 88.9063 32.7251 88.3918 33.1803C87.8971 33.6355 87.343 34.0115 86.7295 34.3083C86.116 34.6249 85.463 34.8525 84.7703 34.991C84.0777 35.1296 83.3752 35.1988 82.6628 35.1988C81.7524 35.1988 80.8817 35.09 80.0506 34.8723C79.2194 34.6744 78.4575 34.338 77.7649 33.863C77.092 33.4079 76.528 32.8241 76.0729 32.1117C75.6375 31.3992 75.3506 30.5483 75.212 29.5588H79.6647C79.7438 30.0338 80.0604 30.4592 80.6145 30.8352C81.1687 31.2112 81.8415 31.3992 82.6331 31.3992C83.484 31.3992 84.1766 31.231 84.711 30.8946C85.2651 30.5582 85.6806 30.1129 85.9577 29.5588C86.2347 29.0047 86.4129 28.3715 86.492 27.659C86.5712 26.9466 86.6108 26.2342 86.6108 25.5218ZM82.7221 23.6517C83.3752 23.6517 83.9491 23.5329 84.4438 23.2955C84.9583 23.058 85.3739 22.7414 85.6905 22.3456C86.0072 21.93 86.2446 21.4551 86.403 20.9207C86.5613 20.3666 86.6404 19.7828 86.6404 19.1694C86.6404 17.9424 86.2941 16.9332 85.6015 16.1416C84.9286 15.3302 83.959 14.9146 82.6924 14.8949C82.0394 14.8949 81.4556 15.0136 80.9411 15.2511C80.4463 15.4885 80.0308 15.8052 79.6943 16.201C79.3777 16.5967 79.1402 17.0618 78.9819 17.5961C78.8236 18.1304 78.7444 18.7043 78.7444 19.3178C78.7444 19.9708 78.8236 20.5645 78.9819 21.0988C79.16 21.6134 79.4173 22.0685 79.7537 22.4643C80.0901 22.8403 80.5057 23.1372 81.0004 23.3548C81.4952 23.5527 82.0691 23.6517 82.7221 23.6517Z" fill="#939393"/>
<path d="M67.3074 13.4415C67.9406 12.6895 68.6135 12.1255 69.3259 11.7495C70.0581 11.3735 70.9288 11.1855 71.9381 11.1855C72.1953 11.1855 72.4427 11.1954 72.6802 11.2152C72.9177 11.235 73.1353 11.2647 73.3332 11.3043V15.1632C72.8781 15.1632 72.413 15.1731 71.9381 15.1929C71.4829 15.1929 71.0476 15.2325 70.632 15.3116C70.2164 15.3908 69.8107 15.5194 69.4149 15.6975C69.0389 15.8559 68.7025 16.0933 68.4057 16.41C67.9505 16.9245 67.6636 17.4786 67.5448 18.0723C67.4459 18.666 67.3964 19.3388 67.3964 20.0908V27.1259H63.2109V11.4824H67.0699L67.3074 13.4415Z" fill="#939393"/>
<path d="M52.5972 27.3618C50.0641 27.3618 48.1149 26.6494 46.7494 25.2246C45.3839 23.78 44.7012 21.7812 44.7012 19.2284C44.7012 18.0014 44.8793 16.8932 45.2355 15.9038C45.6115 14.8945 46.126 14.0337 46.7791 13.3212C47.4519 12.6088 48.2732 12.0745 49.2428 11.7183C50.2323 11.3423 51.3504 11.1543 52.5972 11.1543C53.8241 11.1543 54.9224 11.3423 55.8921 11.7183C56.8816 12.0745 57.7127 12.6088 58.3856 13.3212C59.0782 14.0337 59.6026 14.8945 59.9588 15.9038C60.3348 16.8932 60.5228 18.0014 60.5228 19.2284C60.5228 21.801 59.8302 23.7997 58.4449 25.2246C57.0795 26.6494 55.1302 27.3618 52.5972 27.3618ZM52.5972 14.8945C51.3108 14.8945 50.361 15.3101 49.7475 16.1412C49.134 16.9724 48.8273 18.0113 48.8273 19.2581C48.8273 20.5246 49.134 21.5734 49.7475 22.4046C50.361 23.2357 51.3108 23.6513 52.5972 23.6513C53.8835 23.6513 54.8235 23.2357 55.4172 22.4046C56.0108 21.5734 56.3077 20.5246 56.3077 19.2581C56.3077 18.0113 56.0108 16.9724 55.4172 16.1412C54.8235 15.3101 53.8835 14.8945 52.5972 14.8945Z" fill="#939393"/>
<path d="M16.0887 4.5976C16.0887 3.37764 15.0947 2.37234 13.8874 2.54782C12.6349 2.72988 11.4069 3.06704 10.2323 3.55359C8.37559 4.32266 6.68854 5.44992 5.26747 6.87098C3.8464 8.29205 2.71915 9.9791 1.95007 11.8358C1.18099 13.6925 0.785155 15.6825 0.785155 17.6922C0.785155 19.7019 1.18099 21.6919 1.95007 23.5487C2.71915 25.4054 3.8464 27.0924 5.26747 28.5135C6.68854 29.9346 8.37559 31.0618 10.2323 31.8309C12.089 32.6 14.079 32.9958 16.0887 32.9958L16.0887 25.6501C15.0437 25.6501 14.0089 25.4443 13.0434 25.0443C12.0779 24.6444 11.2006 24.0582 10.4617 23.3193C9.72272 22.5803 9.13654 21.7031 8.73662 20.7376C8.3367 19.7721 8.13087 18.7373 8.13087 17.6922C8.13087 16.6472 8.3367 15.6124 8.73662 14.6469C9.13654 13.6814 9.72272 12.8041 10.4617 12.0652C11.2006 11.3262 12.0779 10.7401 13.0434 10.3401C13.3262 10.223 13.6149 10.1225 13.908 10.039C15.0813 9.7047 16.0887 8.74541 16.0887 7.52545L16.0887 4.5976Z" fill="#939393"/>
<path d="M28.9766 17.6934C30.1966 17.6934 31.2019 18.6874 31.0264 19.8946C30.8443 21.1472 30.5072 22.3752 30.0206 23.5498C29.2516 25.4065 28.1243 27.0936 26.7032 28.5146C25.2822 29.9357 23.5951 31.0629 21.7384 31.832C19.8817 32.6011 17.8917 32.9969 15.882 32.9969L15.882 25.6512C16.927 25.6512 17.9618 25.4454 18.9273 25.0455C19.8928 24.6455 20.7701 24.0594 21.509 23.3204C22.248 22.5815 22.8342 21.7042 23.2341 20.7387C23.3512 20.4559 23.4517 20.1672 23.5352 19.874C23.8695 18.7008 24.8288 17.6934 26.0488 17.6934L28.9766 17.6934Z" fill="#939393"/>
<path d="M31.5586 2.39453C32.7786 2.39453 33.7839 3.38854 33.6084 4.59582C33.4264 5.84837 33.0892 7.07634 32.6027 8.25095C31.8336 10.1077 30.7063 11.7947 29.2853 13.2158C27.8642 14.6369 26.1771 15.7641 24.3204 16.5332C23.1458 17.0197 21.9178 17.3569 20.6653 17.539C19.458 17.7144 18.464 16.7091 18.464 15.4892L18.464 12.5613C18.464 11.3414 19.4714 10.3821 20.6447 10.0478C20.9379 9.96424 21.2266 9.86376 21.5094 9.74663C22.4748 9.34671 23.3521 8.76054 24.0911 8.02159C24.83 7.28263 25.4162 6.40536 25.8161 5.43987C25.9332 5.15711 26.0337 4.86839 26.1173 4.57522C26.4516 3.40196 27.4108 2.39453 28.6308 2.39453L31.5586 2.39453Z" fill="#939393"/>
</svg>
