<svg width="205" height="46" viewBox="0 0 205 46" fill="none" xmlns="http://www.w3.org/2000/svg">
<path d="M191.09 17.2058H194.764L194.908 19.1292C195.386 18.402 195.98 17.8469 196.688 17.4642C197.415 17.0623 198.219 16.8613 199.099 16.8613C202.678 16.8613 204.458 19.0527 204.439 23.4353V24.2104H204.468V31.5595H200.592V24.2104H200.563C200.563 22.8325 200.324 21.8756 199.846 21.3397C199.386 20.7847 198.716 20.5072 197.836 20.5072C196.898 20.5072 196.181 20.8134 195.683 21.4258C195.205 22.0191 194.965 22.8803 194.965 24.0095V31.5595H191.09V17.2058Z" fill="#939393"/>
<path d="M181.157 31.904C179.703 31.904 178.402 31.5882 177.253 30.9567C176.105 30.306 175.205 29.416 174.555 28.2869C173.923 27.1386 173.607 25.8372 173.607 24.3827C173.607 22.9282 173.923 21.6363 174.555 20.5072C175.205 19.3589 176.095 18.4689 177.225 17.8374C178.354 17.1867 179.646 16.8613 181.1 16.8613C182.555 16.8613 183.846 17.1867 184.976 17.8374C186.124 18.4689 187.014 19.3589 187.645 20.5072C188.296 21.6363 188.621 22.9282 188.621 24.3827C188.621 25.8372 188.306 27.1386 187.674 28.2869C187.043 29.416 186.153 30.306 185.004 30.9567C183.875 31.5882 182.593 31.904 181.157 31.904ZM177.598 24.3827C177.598 25.5501 177.923 26.507 178.574 27.2534C179.244 27.9807 180.105 28.3443 181.157 28.3443C182.191 28.3443 183.033 27.9807 183.684 27.2534C184.334 26.507 184.66 25.5501 184.66 24.3827C184.66 23.2152 184.325 22.2679 183.655 21.5406C183.004 20.7942 182.153 20.4211 181.1 20.4211C180.086 20.4211 179.244 20.7942 178.574 21.5406C177.923 22.2679 177.598 23.2152 177.598 24.3827Z" fill="#939393"/>
<path d="M167.043 17.2058H170.918V31.5595H167.043V17.2058ZM168.995 14.9379C168.383 14.9379 167.856 14.7178 167.416 14.2777C166.976 13.8375 166.756 13.3207 166.756 12.7275C166.756 12.115 166.976 11.5887 167.416 11.1486C167.875 10.7084 168.402 10.4883 168.995 10.4883C169.588 10.4883 170.105 10.7084 170.545 11.1486C170.985 11.5887 171.206 12.115 171.206 12.7275C171.206 13.3207 170.985 13.8375 170.545 14.2777C170.124 14.7178 169.607 14.9379 168.995 14.9379Z" fill="#939393"/>
<path d="M161.179 31.9031C159.59 31.9031 158.375 31.5108 157.533 30.7261C156.71 29.9415 156.299 28.8123 156.299 27.3386V20.4776H154.002V17.2049H156.299V12.7266H160.174V17.2049H163.734V20.4776H160.174V26.4774C160.174 27.109 160.298 27.5779 160.547 27.8841C160.815 28.1712 161.217 28.3147 161.753 28.3147C162.136 28.3147 162.566 28.1425 163.045 27.798L164.423 30.6974C163.944 31.061 163.418 31.3481 162.844 31.5586C162.27 31.7883 161.715 31.9031 161.179 31.9031Z" fill="#939393"/>
<path d="M148.485 29.9232C147.681 31.2438 146.361 31.904 144.523 31.904C142.801 31.904 141.461 31.5213 140.504 30.7557C139.567 29.9902 139.098 28.9089 139.098 27.5118C139.098 25.9999 139.605 24.8516 140.619 24.0669C141.633 23.2822 143.069 22.8899 144.925 22.8899H148.341C148.074 21.11 147.203 20.2201 145.729 20.2201C144.466 20.2201 143.509 20.756 142.858 21.8277L139.442 20.6507C139.901 19.579 140.648 18.6795 141.681 17.9522C142.734 17.225 144.083 16.8613 145.729 16.8613C147.873 16.8613 149.499 17.4642 150.609 18.6699C151.719 19.8565 152.255 21.5024 152.217 23.6076L152.16 31.5595H148.542L148.485 29.9232ZM143.059 27.397C143.059 27.7989 143.251 28.1242 143.633 28.373C144.016 28.6027 144.542 28.7175 145.212 28.7175C145.806 28.7175 146.341 28.574 146.82 28.2869C147.318 27.9998 147.71 27.6266 147.997 27.1673C148.284 26.708 148.428 26.2295 148.428 25.7319H146.303C145.136 25.7319 144.303 25.8755 143.806 26.1625C143.308 26.4305 143.059 26.8419 143.059 27.397Z" fill="#939393"/>
<path d="M131.148 31.904C129.655 31.904 128.325 31.5882 127.158 30.9567C125.99 30.306 125.072 29.416 124.402 28.2869C123.751 27.1386 123.426 25.8372 123.426 24.3827C123.426 22.9282 123.751 21.6363 124.402 20.5072C125.053 19.3589 125.962 18.4689 127.129 17.8374C128.296 17.1867 129.617 16.8613 131.091 16.8613C132.564 16.8613 133.885 17.225 135.052 17.9522C136.239 18.6795 137.1 19.7034 137.636 21.0239L133.99 22.3157C133.722 21.7607 133.311 21.3205 132.756 20.9952C132.201 20.6698 131.588 20.5072 130.918 20.5072C129.885 20.5072 129.043 20.8708 128.392 21.5981C127.741 22.3062 127.416 23.2344 127.416 24.3827C127.416 25.5118 127.741 26.44 128.392 27.1673C129.062 27.8946 129.923 28.2582 130.976 28.2582C131.646 28.2582 132.258 28.0859 132.813 27.7414C133.368 27.3778 133.78 26.8994 134.048 26.3061L137.722 27.5979C137.167 28.9567 136.306 30.0189 135.138 30.7844C133.971 31.5308 132.641 31.904 131.148 31.904Z" fill="#939393"/>
<path d="M116.861 17.2058H120.737V31.5595H116.861V17.2058ZM118.813 14.9379C118.201 14.9379 117.675 14.7178 117.234 14.2777C116.794 13.8375 116.574 13.3207 116.574 12.7275C116.574 12.115 116.794 11.5887 117.234 11.1486C117.694 10.7084 118.22 10.4883 118.813 10.4883C119.407 10.4883 119.923 10.7084 120.364 11.1486C120.804 11.5887 121.024 12.115 121.024 12.7275C121.024 13.3207 120.804 13.8375 120.364 14.2777C119.943 14.7178 119.426 14.9379 118.813 14.9379Z" fill="#939393"/>
<path d="M109.512 10.8906H113.387V31.56H109.512V10.8906Z" fill="#939393"/>
<path d="M92.4121 17.2058H96.0867L96.2302 19.1866C96.7087 18.4402 97.3115 17.8661 98.0388 17.4642C98.7852 17.0623 99.6368 16.8613 100.594 16.8613C101.895 16.8613 103.034 17.1675 104.01 17.78C105.005 18.3924 105.761 19.2632 106.278 20.3923C106.814 21.5215 107.082 22.8516 107.082 24.3827C107.082 25.8946 106.814 27.2247 106.278 28.373C105.761 29.5022 105.005 30.373 104.01 30.9854C103.034 31.5978 101.895 31.904 100.594 31.904C99.656 31.904 98.8234 31.7126 98.0962 31.3299C97.3689 30.928 96.7661 30.3634 96.2876 29.6361V37.301H92.4121V17.2058ZM96.2876 24.3827C96.2876 25.5501 96.5938 26.507 97.2063 27.2534C97.8378 27.9807 98.6416 28.3443 99.6177 28.3443C100.613 28.3443 101.436 27.9711 102.087 27.2247C102.737 26.4783 103.063 25.531 103.063 24.3827C103.063 23.2344 102.737 22.2966 102.087 21.5693C101.455 20.823 100.642 20.4498 99.6464 20.4498C98.6512 20.4498 97.8378 20.8134 97.2063 21.5406C96.5938 22.2679 96.2876 23.2152 96.2876 24.3827Z" fill="#939393"/>
<path d="M75.1699 17.2058H78.8445L78.988 19.1866C79.4665 18.4402 80.0693 17.8661 80.7966 17.4642C81.543 17.0623 82.3946 16.8613 83.3515 16.8613C84.6529 16.8613 85.7917 17.1675 86.7677 17.78C87.7629 18.3924 88.5189 19.2632 89.0356 20.3923C89.5715 21.5215 89.8394 22.8516 89.8394 24.3827C89.8394 25.8946 89.5715 27.2247 89.0356 28.373C88.5189 29.5022 87.7629 30.373 86.7677 30.9854C85.7917 31.5978 84.6529 31.904 83.3515 31.904C82.4138 31.904 81.5812 31.7126 80.854 31.3299C80.1267 30.928 79.5239 30.3634 79.0454 29.6361V37.301H75.1699V17.2058ZM79.0454 24.3827C79.0454 25.5501 79.3516 26.507 79.9641 27.2534C80.5956 27.9807 81.3994 28.3443 82.3755 28.3443C83.3707 28.3443 84.1936 27.9711 84.8443 27.2247C85.495 26.4783 85.8204 25.531 85.8204 24.3827C85.8204 23.2344 85.495 22.2966 84.8443 21.5693C84.2128 20.823 83.3994 20.4498 82.4042 20.4498C81.409 20.4498 80.5956 20.8134 79.9641 21.5406C79.3516 22.2679 79.0454 23.2152 79.0454 24.3827Z" fill="#939393"/>
<path d="M68.3053 29.9232C67.5015 31.2438 66.1809 31.904 64.3437 31.904C62.6212 31.904 61.2815 31.5213 60.3246 30.7557C59.3869 29.9902 58.918 28.9089 58.918 27.5118C58.918 25.9999 59.4251 24.8516 60.4395 24.0669C61.4538 23.2822 62.8892 22.8899 64.7456 22.8899H68.1618C67.8938 21.11 67.023 20.2201 65.5494 20.2201C64.2863 20.2201 63.3293 20.756 62.6786 21.8277L59.2625 20.6507C59.7218 19.579 60.4682 18.6795 61.5016 17.9522C62.5542 17.225 63.9035 16.8613 65.5494 16.8613C67.6929 16.8613 69.3196 17.4642 70.4296 18.6699C71.5397 19.8565 72.0755 21.5024 72.0373 23.6076L71.9799 31.5595H68.3627L68.3053 29.9232ZM62.8796 27.397C62.8796 27.7989 63.071 28.1242 63.4537 28.373C63.8365 28.6027 64.3628 28.7175 65.0327 28.7175C65.6259 28.7175 66.1618 28.574 66.6403 28.2869C67.1379 27.9998 67.5302 27.6266 67.8173 27.1673C68.1043 26.708 68.2479 26.2295 68.2479 25.7319H66.1235C64.9561 25.7319 64.1236 25.8755 63.626 26.1625C63.1284 26.4305 62.8796 26.8419 62.8796 27.397Z" fill="#939393"/>
<path fill-rule="evenodd" clip-rule="evenodd" d="M19.4265 36.7123V36.7131H10.1532C4.69353 36.7131 0.267578 32.2871 0.267578 26.8274C0.267578 22.0127 3.93696 18.0549 8.63181 17.5981C8.96245 12.777 12.978 8.96875 17.8831 8.96875H18.1893C20.8277 8.96875 23.2169 10.0354 24.9494 11.7609C27.2721 10.0081 30.1634 8.96875 33.2975 8.96875H33.994C41.2705 8.96875 47.1693 14.8675 47.1693 22.144C47.1693 30.1899 40.6468 36.7123 32.601 36.7123H19.4265Z" fill="#939393"/>
</svg>
