<svg width="184" height="37" viewBox="0 0 184 37" fill="none" xmlns="http://www.w3.org/2000/svg">
<path d="M177.085 12.0781H181.409L175.706 27.7448C174.077 32.2568 171.413 34.2308 167.434 34.0114V30.2514C169.659 30.2828 170.787 29.3428 171.539 27.2434L165.115 12.0781H169.533L173.607 22.6061L177.085 12.0781Z" fill="#939393"/>
<path d="M157.834 11.6406C161.155 11.6406 163.756 13.9593 163.756 18.1266V27.7459H159.714V18.6279C159.714 16.4973 158.429 15.4006 156.612 15.4006C154.638 15.4006 153.165 16.5599 153.165 19.2859V27.7459H149.123V12.0793H153.165V13.834C154.105 12.424 155.734 11.6406 157.834 11.6406Z" fill="#939393"/>
<path d="M141.417 12.0793H145.459V27.7459H141.417V25.8973C140.289 27.3073 138.597 28.1846 136.309 28.1846C132.142 28.1846 128.695 24.5813 128.695 19.9126C128.695 15.244 132.142 11.6406 136.309 11.6406C138.597 11.6406 140.289 12.518 141.417 13.928V12.0793ZM137.061 24.3306C139.568 24.3306 141.417 22.5446 141.417 19.9126C141.417 17.2806 139.568 15.4946 137.061 15.4946C134.586 15.4946 132.737 17.2806 132.737 19.9126C132.737 22.5446 134.586 24.3306 137.061 24.3306Z" fill="#939393"/>
<path d="M119.014 11.6406C123.213 11.6406 126.66 15.244 126.66 19.9126C126.66 24.5813 123.213 28.1846 119.014 28.1846C116.727 28.1846 115.066 27.3386 113.938 25.8973V34.0126H109.896V12.0793H113.938V13.928C115.066 12.4866 116.727 11.6406 119.014 11.6406ZM118.262 24.3306C120.769 24.3306 122.618 22.5446 122.618 19.9126C122.618 17.2806 120.769 15.4946 118.262 15.4946C115.787 15.4946 113.938 17.2806 113.938 19.9126C113.938 22.5446 115.787 24.3306 118.262 24.3306Z" fill="#939393"/>
<path d="M100.542 11.6406C104.114 11.6406 106.464 14.1786 106.464 18.0953V27.7459H102.422V18.3773C102.422 16.5286 101.482 15.4006 99.7901 15.4006C98.0042 15.4006 96.8762 16.5913 96.8762 18.9413V27.7459H92.8342V18.3773C92.8342 16.5286 91.8942 15.4006 90.2022 15.4006C88.4788 15.4006 87.2568 16.5913 87.2568 18.9413V27.7459H83.2148V12.0793H87.2568V13.74C88.1342 12.424 89.6068 11.6406 91.6122 11.6406C93.5548 11.6406 94.9962 12.4553 95.8735 13.8966C96.8448 12.4866 98.4115 11.6406 100.542 11.6406Z" fill="#939393"/>
<path d="M72.0669 28.1846C67.4609 28.1846 63.7949 24.5813 63.7949 19.9126C63.7949 15.244 67.4609 11.6406 72.0669 11.6406C76.6729 11.6406 80.3702 15.244 80.3702 19.9126C80.3702 24.5813 76.6729 28.1846 72.0669 28.1846ZM72.0669 24.2366C74.4796 24.2366 76.3282 22.4506 76.3282 19.9126C76.3282 17.3746 74.4796 15.5886 72.0669 15.5886C69.6856 15.5886 67.8369 17.3746 67.8369 19.9126C67.8369 22.4506 69.6856 24.2366 72.0669 24.2366Z" fill="#939393"/>
<path d="M55.6353 28.1846C50.8726 28.1846 47.3633 24.5813 47.3633 19.9126C47.3633 15.244 50.8726 11.6406 55.6353 11.6406C58.7059 11.6406 61.3693 13.27 62.6539 15.6826L59.1759 17.7193C58.5493 16.4346 57.2019 15.62 55.6039 15.62C53.1913 15.62 51.4053 17.4059 51.4053 19.9126C51.4053 22.3879 53.1913 24.1739 55.6039 24.1739C57.2333 24.1739 58.5806 23.3906 59.2073 22.1059L62.7166 24.1113C61.3693 26.5553 58.7059 28.1846 55.6353 28.1846Z" fill="#939393"/>
<path fill-rule="evenodd" clip-rule="evenodd" d="M12.8699 3.61328C11.518 3.61328 10.422 4.70922 10.422 6.06113V13.7061H2.63535C1.28344 13.7061 0.1875 14.802 0.1875 16.1539V34.202C0.1875 35.5539 1.28344 36.6498 2.63535 36.6498H20.469C21.8209 36.6498 22.9168 35.5539 22.9168 34.202V26.557H30.7035C32.0554 26.557 33.1513 25.4611 33.1513 24.1092V6.06113C33.1513 4.70922 32.0554 3.61328 30.7035 3.61328H12.8699ZM22.9168 26.557V16.1539C22.9168 14.802 21.8209 13.7061 20.469 13.7061H10.422V24.1092C10.422 25.4611 11.518 26.557 12.8699 26.557H22.9168Z" fill="#939393"/>
</svg>
