<svg width="146" height="34" viewBox="0 0 146 34" fill="none" xmlns="http://www.w3.org/2000/svg">
<path d="M140.282 27.187C140.677 26.5736 140.905 25.9007 140.964 25.1685C141.024 24.4363 141.053 23.714 141.053 23.0016C140.48 23.7338 139.777 24.2483 138.946 24.5451C138.115 24.842 137.214 24.9904 136.245 24.9904C135.117 24.9904 134.137 24.8222 133.306 24.4858C132.495 24.1493 131.851 23.6348 131.376 22.9422C130.901 22.3089 130.575 21.5668 130.397 20.7159C130.219 19.8451 130.13 18.9051 130.13 17.8959V9.10938H134.315V17.3913C134.315 17.9256 134.355 18.45 134.434 18.9645C134.533 19.4593 134.731 19.8748 135.028 20.2112C135.503 20.9237 136.363 21.2799 137.61 21.2799C138.204 21.2799 138.758 21.1611 139.272 20.9237C139.787 20.6664 140.193 20.2706 140.489 19.7363C140.747 19.2811 140.905 18.8062 140.964 18.3115C141.024 17.7969 141.053 17.2428 141.053 16.6492V9.10938H145.269V21.9626C145.269 22.675 145.259 23.4072 145.239 24.1592C145.239 24.8915 145.18 25.6138 145.061 26.3262C144.962 27.0386 144.774 27.7312 144.497 28.4041C144.22 29.0769 143.834 29.7003 143.339 30.2742C142.647 31.0658 141.736 31.699 140.608 32.174C139.5 32.6489 138.164 32.8765 136.601 32.8567C135.453 32.8765 134.315 32.7182 133.187 32.3818C132.059 32.0651 131.02 31.6001 130.07 30.9866L131.406 27.4245C131.921 27.8005 132.603 28.1468 133.454 28.4634C134.325 28.7801 135.344 28.9384 136.512 28.9384C137.462 28.9384 138.233 28.7801 138.827 28.4634C139.441 28.1666 139.925 27.7411 140.282 27.187Z" fill="#939393"/>
<path d="M120.976 21.2802C121.768 21.2802 122.391 21.0922 122.847 20.7162C123.322 20.3402 123.608 19.9148 123.707 19.4398H128.101C127.962 20.4491 127.675 21.3 127.24 21.9927C126.804 22.6853 126.26 23.2592 125.607 23.7143C124.974 24.1695 124.252 24.496 123.44 24.6939C122.629 24.8918 121.788 24.9908 120.917 24.9908C119.611 24.9908 118.473 24.8126 117.503 24.4564C116.554 24.0804 115.762 23.5461 115.129 22.8535C114.495 22.1411 114.011 21.2901 113.674 20.3007C113.358 19.2914 113.199 18.1634 113.199 16.9167C113.199 15.7095 113.377 14.6013 113.734 13.592C114.09 12.5828 114.594 11.7219 115.247 11.0095C115.92 10.2971 116.742 9.75289 117.711 9.37689C118.681 8.9811 119.789 8.7832 121.036 8.7832C121.946 8.7832 122.797 8.89205 123.589 9.10973C124.4 9.32741 125.112 9.66383 125.726 10.119C126.359 10.5741 126.874 11.1579 127.27 11.8704C127.685 12.563 127.962 13.3941 128.101 14.3638H123.707C123.608 13.8889 123.312 13.4634 122.817 13.0874C122.342 12.7114 121.719 12.5234 120.947 12.5234C120.294 12.5234 119.73 12.6421 119.255 12.8796C118.78 13.1171 118.404 13.4436 118.127 13.8592C117.85 14.2748 117.652 14.7497 117.533 15.284C117.414 15.8183 117.355 16.3823 117.355 16.976C117.355 17.6093 117.424 18.1931 117.563 18.7274C117.701 19.2419 117.909 19.6971 118.186 20.0929C118.463 20.4689 118.829 20.7657 119.284 20.9834C119.759 21.1813 120.323 21.2802 120.976 21.2802Z" fill="#939393"/>
<path d="M100.453 11.0982C101.72 9.57439 103.283 8.8026 105.144 8.78281C106.153 8.76302 107.043 8.93123 107.815 9.28744C108.587 9.62386 109.21 10.0889 109.685 10.6826C110.259 11.3752 110.655 12.1866 110.873 13.1167C111.09 14.027 111.199 15.0462 111.199 16.1742V24.7529H106.984V16.5007C106.984 15.9466 106.925 15.4222 106.806 14.9274C106.707 14.4129 106.529 13.9775 106.272 13.6213C106.014 13.2453 105.668 12.9683 105.233 12.7902C104.817 12.6121 104.342 12.523 103.808 12.523C103.135 12.5428 102.561 12.6912 102.086 12.9683C101.631 13.2453 101.285 13.6015 101.047 14.0369C100.81 14.4525 100.641 14.9274 100.542 15.4617C100.463 15.9763 100.424 16.5007 100.424 17.035V24.7529H96.2383V9.10934H100.246L100.453 11.0982Z" fill="#939393"/>
<path d="M86.8257 21.5771C87.4194 21.5771 87.924 21.488 88.3396 21.3099C88.775 21.112 89.1312 20.7954 89.4082 20.36H93.8015C93.5838 21.1714 93.2474 21.8739 92.7922 22.4676C92.3568 23.0613 91.8225 23.5461 91.1893 23.9221C90.5758 24.2981 89.8931 24.5752 89.1411 24.7533C88.3891 24.9116 87.5975 24.9908 86.7663 24.9908C84.2333 24.9908 82.3137 24.2783 81.0076 22.8535C79.7213 21.4287 79.0781 19.4299 79.0781 16.8573C79.0781 15.6897 79.2463 14.6112 79.5828 13.6217C79.939 12.6322 80.4337 11.7813 81.067 11.0689C81.7002 10.3367 82.4819 9.77268 83.412 9.37689C84.3619 8.9811 85.4404 8.7832 86.6476 8.7832C88.0526 8.7832 89.2697 9.03057 90.2987 9.52531C91.3278 10.02 92.1392 10.7028 92.7328 11.5735C93.3463 12.4245 93.752 13.4238 93.9499 14.5716C94.1676 15.7194 94.1676 16.9463 93.9499 18.2525H83.2636C83.3428 19.1826 83.6693 19.9741 84.2432 20.6272C84.8171 21.2604 85.6779 21.5771 86.8257 21.5771ZM90.0613 15.3731C90.0613 14.8784 89.9722 14.443 89.7941 14.067C89.616 13.6712 89.3785 13.3546 89.0817 13.1171C88.7848 12.8598 88.4286 12.6718 88.0131 12.5531C87.6173 12.4344 87.2017 12.375 86.7663 12.375C85.7175 12.3948 84.8962 12.6817 84.3025 13.2358C83.7286 13.7701 83.3922 14.4826 83.2933 15.3731H90.0613Z" fill="#939393"/>
<path d="M72.765 23.1507C72.1714 23.8235 71.4589 24.2985 70.6278 24.5755C69.7966 24.8526 68.8962 24.9911 67.9265 24.9911C66.9568 24.9911 66.007 24.8427 65.0768 24.5458C64.1665 24.2292 63.375 23.7246 62.7021 23.032C61.9501 22.2404 61.4257 21.3301 61.1289 20.301C60.832 19.272 60.6836 18.2132 60.6836 17.1248C60.6836 14.5522 61.396 12.4941 62.8209 10.9505C63.4343 10.2777 64.2259 9.75324 65.1956 9.37724C66.1851 9.00124 67.2438 8.82313 68.3718 8.84292C69.104 8.80334 69.8956 8.93197 70.7465 9.22882C71.5975 9.52566 72.3297 10.0204 72.9431 10.713L73.3884 9.11008H77.0099V23.7741C77.0099 24.4073 76.9703 25.0307 76.8911 25.6442C76.8318 26.2774 76.7229 26.881 76.5646 27.4549C76.4063 28.0486 76.1688 28.6126 75.8522 29.1469C75.496 29.7999 75.0606 30.354 74.5461 30.8092C74.0514 31.2644 73.4973 31.6404 72.8838 31.9372C72.2703 32.2538 71.6173 32.4814 70.9246 32.6199C70.232 32.7585 69.5295 32.8277 68.8171 32.8277C67.9067 32.8277 67.036 32.7189 66.2048 32.5012C65.3737 32.3033 64.6118 31.9669 63.9192 31.4919C63.2463 31.0368 62.6823 30.453 62.2272 29.7406C61.7918 29.0282 61.5049 28.1772 61.3663 27.1877H65.819C65.8981 27.6627 66.2147 28.0882 66.7688 28.4642C67.323 28.8402 67.9958 29.0282 68.7874 29.0282C69.6383 29.0282 70.3309 28.8599 70.8653 28.5235C71.4194 28.1871 71.8349 27.7418 72.112 27.1877C72.389 26.6336 72.5671 26.0004 72.6463 25.2879C72.7255 24.5755 72.765 23.8631 72.765 23.1507ZM68.8764 21.2806C69.5295 21.2806 70.1034 21.1618 70.5981 20.9244C71.1126 20.6869 71.5282 20.3703 71.8448 19.9745C72.1615 19.5589 72.3989 19.084 72.5573 18.5496C72.7156 17.9955 72.7947 17.4117 72.7947 16.7983C72.7947 15.5713 72.4484 14.5621 71.7558 13.7705C71.0829 12.9591 70.1133 12.5435 68.8467 12.5238C68.1937 12.5238 67.6099 12.6425 67.0954 12.88C66.6006 13.1174 66.1851 13.4341 65.8486 13.8299C65.532 14.2256 65.2945 14.6907 65.1362 15.225C64.9779 15.7593 64.8987 16.3332 64.8987 16.9467C64.8987 17.5997 64.9779 18.1934 65.1362 18.7277C65.3143 19.2423 65.5716 19.6974 65.908 20.0932C66.2444 20.4692 66.66 20.7661 67.1547 20.9837C67.6495 21.1816 68.2234 21.2806 68.8764 21.2806Z" fill="#939393"/>
<path d="M54.7098 22.8238C54.1161 23.6154 53.3938 24.1794 52.5428 24.5158C51.6919 24.8522 50.7024 25.0105 49.5744 24.9908C48.1298 24.9512 46.9226 24.5455 45.9529 23.7737C45.4384 23.3383 45.0327 22.8238 44.7359 22.2301C44.4588 21.6167 44.3203 20.8943 44.3203 20.0632C44.3401 19.2122 44.5281 18.4602 44.8843 17.8072C45.2603 17.1343 45.8243 16.5802 46.5763 16.1449C47.2096 15.8085 47.922 15.571 48.7136 15.4325C49.5249 15.2939 50.4056 15.2247 51.3555 15.2247H54.5613C54.6207 14.255 54.3931 13.5327 53.8786 13.0577C53.3839 12.563 52.6814 12.3057 51.771 12.2859C51.4742 12.2859 51.1675 12.3057 50.8508 12.3453C50.5342 12.3849 50.2374 12.464 49.9603 12.5828C49.703 12.7015 49.4755 12.8697 49.2776 13.0874C49.0995 13.2853 48.9807 13.5327 48.9214 13.8295H44.6172C44.7161 12.8796 44.9734 12.088 45.3889 11.4548C45.8243 10.8017 46.3685 10.2773 47.0216 9.88152C47.6746 9.48573 48.3969 9.20868 49.1885 9.05036C49.9999 8.87226 50.831 8.7832 51.682 8.7832C52.1569 8.7832 52.6418 8.81289 53.1365 8.87226C53.6312 8.91183 54.1161 9.01078 54.591 9.1691C55.066 9.30762 55.5112 9.50552 55.9268 9.76278C56.3622 10.0003 56.7679 10.3169 57.1439 10.7127C57.8167 11.4845 58.2323 12.375 58.3906 13.3842C58.5687 14.3737 58.6479 15.3434 58.6281 16.2933V24.7533H54.7988L54.7098 22.8238ZM54.5613 17.8369H51.5039C51.207 17.8369 50.8706 17.8666 50.4946 17.9259C50.1186 17.9853 49.7921 18.0941 49.515 18.2525C49.238 18.4108 49.0005 18.6186 48.8026 18.8758C48.6245 19.1331 48.5355 19.4497 48.5355 19.8257C48.5355 20.1423 48.5948 20.4194 48.7136 20.6569C48.8521 20.8943 49.0203 21.0922 49.2182 21.2505C49.4359 21.4089 49.6931 21.5375 49.99 21.6364C50.2868 21.7156 50.5837 21.7552 50.8805 21.7552C51.4544 21.775 51.9887 21.676 52.4835 21.4583C52.998 21.2407 53.4432 20.9339 53.8192 20.5381C54.0567 20.2215 54.2348 19.8653 54.3536 19.4695C54.4921 19.0539 54.5613 18.5097 54.5613 17.8369Z" fill="#939393"/>
<path fill-rule="evenodd" clip-rule="evenodd" d="M32.9555 18.139C32.7878 21.0696 31.8403 23.9086 30.2031 26.3587C28.3911 29.0707 25.8155 31.1844 22.8021 32.4326C19.7887 33.6807 16.4729 34.0073 13.2739 33.371C10.075 32.7347 7.1365 31.1641 4.83017 28.8577C2.52383 26.5514 0.953198 23.6129 0.316881 20.414C-0.319435 17.215 0.00714537 13.8991 1.25533 10.8858C2.50351 7.8724 4.61722 5.29683 7.32919 3.48475C9.77931 1.84763 12.6183 0.900124 15.5489 0.732422V9.0051C14.2516 9.15433 13.0035 9.61022 11.9102 10.3407C10.5542 11.2468 9.49736 12.5345 8.87327 14.0412C8.24918 15.5479 8.08589 17.2058 8.40404 18.8053C8.7222 20.4048 9.50752 21.874 10.6607 23.0272C11.8139 24.1804 13.2831 24.9657 14.8826 25.2838C16.4821 25.602 18.14 25.4387 19.6467 24.8146C21.1533 24.1905 22.4411 23.1337 23.3472 21.7777C24.0777 20.6844 24.5336 19.4363 24.6828 18.139H32.9555Z" fill="#939393"/>
<path fill-rule="evenodd" clip-rule="evenodd" d="M24.7306 0.705078H17.9844V8.95066H24.7306L24.7306 15.6967H32.9762L32.9762 8.95066H32.9764V0.705078H31.4678H24.7306Z" fill="#939393"/>
</svg>
