<svg width="159" height="39" viewBox="0 0 159 39" fill="none" xmlns="http://www.w3.org/2000/svg">
<path d="M149.683 29.4971C148.032 29.4971 146.584 29.1465 145.34 28.4452C144.096 27.7213 143.134 26.7146 142.455 25.4252C141.777 24.1357 141.438 22.6201 141.438 20.8782C141.438 19.1589 141.777 17.6546 142.455 16.3651C143.134 15.0531 144.096 14.0351 145.34 13.3112C146.584 12.5647 148.032 12.1914 149.683 12.1914C151.357 12.1914 152.805 12.5647 154.027 13.3112C155.271 14.0577 156.232 15.087 156.911 16.3991C157.589 17.6885 157.929 19.1702 157.929 20.8443C157.929 21.0931 157.918 21.3419 157.895 21.5908C157.895 21.817 157.872 22.0093 157.827 22.1676H145.068V18.8422H154.468L153.789 20.4371C153.789 19.0345 153.45 17.8921 152.771 17.0099C152.115 16.1276 151.086 15.6865 149.683 15.6865C148.462 15.6865 147.478 16.0711 146.731 16.8402C145.984 17.5867 145.611 18.5934 145.611 19.8602V21.6586C145.611 22.9933 145.984 24.0453 146.731 24.8144C147.5 25.5609 148.541 25.9342 149.853 25.9342C151.007 25.9342 151.911 25.6967 152.567 25.2216C153.223 24.7465 153.789 24.1584 154.264 23.4571L157.352 25.2216C156.605 26.6015 155.587 27.6648 154.298 28.4113C153.031 29.1352 151.493 29.4971 149.683 29.4971Z" fill="#939393"/>
<path d="M134.382 12.5647L135.502 17.1456V29.1578H131.057V12.5647H134.382ZM134.586 19.4191L133.771 19.0458V15.6525L134.077 15.2793C134.325 14.8721 134.699 14.431 135.196 13.9559C135.717 13.4809 136.305 13.0737 136.961 12.7343C137.64 12.3724 138.341 12.1914 139.065 12.1914C139.427 12.1914 139.755 12.214 140.049 12.2593C140.343 12.3045 140.569 12.3837 140.727 12.4968V16.5348H139.642C138.171 16.5348 137.04 16.7723 136.248 17.2474C135.457 17.6998 134.902 18.4237 134.586 19.4191Z" fill="#939393"/>
<path d="M117.796 29.5648C116.552 29.5648 115.557 29.3725 114.81 28.9879C114.064 28.6033 113.487 28.0944 113.08 27.4609C112.695 26.8049 112.435 26.0584 112.299 25.2214C112.164 24.3844 112.096 23.5134 112.096 22.6086V12.5645H116.541V22.6425C116.541 23.6605 116.756 24.3391 117.186 24.6785C117.638 25.0178 118.17 25.1874 118.78 25.1874C119.346 25.1874 119.912 25.0856 120.477 24.8821C121.043 24.6785 121.574 24.3844 122.072 23.9998C122.592 23.5926 123.022 23.1289 123.361 22.6086L123.904 24.9499H122.818V12.5645H127.264V29.1576H123.938L123.022 26.0018L124.447 26.0358C123.882 26.6918 123.237 27.2913 122.513 27.8342C121.812 28.3771 121.054 28.8069 120.24 29.1236C119.448 29.4177 118.633 29.5648 117.796 29.5648Z" fill="#939393"/>
<path d="M106.234 29.4629C104.538 29.4629 103.192 29.0218 102.196 28.1395C101.223 27.2346 100.737 25.7982 100.737 23.8301V12.768L100.669 12.5644L101.585 8.66211H105.182V23.1175C105.182 23.8414 105.352 24.373 105.691 24.7123C106.053 25.029 106.506 25.1874 107.049 25.1874C107.411 25.1874 107.739 25.1647 108.033 25.1195C108.327 25.0516 108.587 24.9838 108.813 24.9159V29.0557C108.451 29.1914 108.067 29.2932 107.659 29.3611C107.252 29.429 106.777 29.4629 106.234 29.4629ZM98.1582 16.6702V12.5644H108.813V16.6702H98.1582Z" fill="#939393"/>
<path d="M90.5641 12.1914C91.6952 12.1914 92.6001 12.3837 93.2787 12.7683C93.98 13.1528 94.5003 13.6731 94.8397 14.3292C95.2016 14.9852 95.4391 15.7317 95.5522 16.5687C95.6654 17.3831 95.7219 18.2314 95.7219 19.1137V29.1578H91.2767V19.0798C91.2767 18.0618 91.0731 17.3831 90.6659 17.0438C90.2814 16.7045 89.7837 16.5348 89.1729 16.5348C88.6073 16.5348 88.0305 16.6479 87.4423 16.8741C86.8541 17.0777 86.2999 17.3831 85.7796 17.7903C85.2819 18.1749 84.8521 18.616 84.4902 19.1137L83.9133 16.8063H85.0331V29.1578H80.5879V12.5647H83.9133L84.8295 15.7543L83.4043 15.6865C83.9925 15.0078 84.6598 14.4083 85.4063 13.888C86.1755 13.3677 86.9899 12.9605 87.8495 12.6665C88.7091 12.3498 89.614 12.1914 90.5641 12.1914Z" fill="#939393"/>
<path d="M69.6226 29.4971C67.9712 29.4971 66.5234 29.1465 65.2792 28.4452C64.035 27.7213 63.0736 26.7146 62.3949 25.4252C61.7163 24.1357 61.377 22.6201 61.377 20.8782C61.377 19.1589 61.7163 17.6546 62.3949 16.3651C63.0736 15.0531 64.035 14.0351 65.2792 13.3112C66.5234 12.5647 67.9712 12.1914 69.6226 12.1914C71.2966 12.1914 72.7444 12.5647 73.966 13.3112C75.2102 14.0577 76.1716 15.087 76.8503 16.3991C77.529 17.6885 77.8683 19.1702 77.8683 20.8443C77.8683 21.0931 77.857 21.3419 77.8343 21.5908C77.8343 21.817 77.8117 22.0093 77.7665 22.1676H65.0078V18.8422H74.4071L73.7285 20.4371C73.7285 19.0345 73.3892 17.8921 72.7105 17.0099C72.0545 16.1276 71.0252 15.6865 69.6226 15.6865C68.401 15.6865 67.417 16.0711 66.6705 16.8402C65.9239 17.5867 65.5507 18.5934 65.5507 19.8602V21.6586C65.5507 22.9933 65.9239 24.0453 66.6705 24.8144C67.4396 25.5609 68.4802 25.9342 69.7923 25.9342C70.946 25.9342 71.8509 25.6967 72.5069 25.2216C73.1629 24.7465 73.7285 24.1584 74.2035 23.4571L77.2914 25.2216C76.5449 26.6015 75.5269 27.6648 74.2375 28.4113C72.9707 29.1352 71.4324 29.4971 69.6226 29.4971Z" fill="#939393"/>
<path d="M60.6976 12.5645L54.6236 29.1576H50.3481L43.9688 12.5645H48.6515L52.9949 25.2553H51.943L56.1167 12.5645H60.6976Z" fill="#939393"/>
<path fill-rule="evenodd" clip-rule="evenodd" d="M12.0378 2.80469C11.4595 2.80469 10.9908 3.27347 10.9908 3.85175V13.7994H10.9902C4.91834 13.7994 -0.00390625 18.7216 -0.00390625 24.7935C-0.00390625 30.8654 4.91834 35.7876 10.9902 35.7876H20.9373C21.5156 35.7876 21.9844 35.3188 21.9844 34.7406V24.793H21.9849C28.0568 24.793 32.979 19.8707 32.979 13.7988C32.979 7.72693 28.0568 2.80469 21.9849 2.80469H12.0378ZM21.9844 24.793V14.8464C21.9844 14.2681 21.5156 13.7994 20.9373 13.7994H10.9908V23.7459C10.9908 24.3242 11.4595 24.793 12.0378 24.793H21.9844Z" fill="#939393"/>
<path d="M11.9193 2.80664C11.4062 2.80664 10.9902 3.2226 10.9902 3.73572L10.9902 13.8008H21.0553C21.5684 13.8008 21.9844 14.2167 21.9844 14.7299L21.9844 24.7949C28.0563 24.7949 32.9785 19.8727 32.9785 13.8008C32.9785 7.72888 28.0563 2.80664 21.9844 2.80664H11.9193Z" fill="#939393"/>
</svg>
